<svg width="312" height="133" viewBox="0 0 312 133" fill="none" xmlns="http://www.w3.org/2000/svg">
<path d="M0 131.583V1.41678H26.3883C35.3443 1.41678 43.0609 2.59743 49.538 4.95872C56.0951 7.26099 61.1328 10.8915 64.6512 15.8502C68.2496 20.8089 70.0488 27.2139 70.0488 35.0652C70.0488 41.3227 68.9293 46.7832 66.6903 51.4467C64.5313 56.1103 60.2932 59.9179 53.976 62.8695C60.3732 65.4669 64.9711 69.5992 67.7699 75.2663C70.5686 80.8744 71.968 87.368 71.968 94.747C71.968 102.008 70.3687 108.413 67.1701 113.962C64.0515 119.511 59.4136 123.85 53.2563 126.979C47.179 130.048 39.6624 131.583 30.7063 131.583H0ZM25.9085 112.634C33.745 112.634 38.9027 110.922 41.3816 107.498C43.8605 104.015 45.0999 99.0564 45.0999 92.6218C45.0999 86.0692 43.8605 81.1105 41.3816 77.7457C38.9027 74.3218 33.745 72.6099 25.9085 72.6099V112.634ZM25.9085 55.0772C33.1852 55.0772 38.183 53.6014 40.9018 50.6498C43.7006 47.6982 45.0999 43.3298 45.0999 37.5446C45.0999 31.7004 43.6606 27.391 40.7819 24.6165C37.9831 21.783 33.0253 20.3662 25.9085 20.3662V55.0772Z" fill="#D05A00"/>
<path d="M87.383 131.583V1.41678H113.291V113.873H147.596V131.583H87.383Z" fill="#D05A00"/>
<path d="M191.478 133C184.281 133 178.084 131.76 172.886 129.281C167.769 126.802 163.81 123.437 161.012 119.186C158.293 114.936 156.933 110.154 156.933 104.842V28.1585C156.933 22.7865 158.293 18.0049 161.012 13.8136C163.81 9.56325 167.769 6.1984 172.886 3.71904C178.084 1.23968 184.281 0 191.478 0C198.675 0 204.832 1.23968 209.95 3.71904C215.147 6.1984 219.106 9.56325 221.824 13.8136C224.623 18.0639 226.023 22.8455 226.023 28.1585V104.842C226.023 110.154 224.623 114.936 221.824 119.186C219.106 123.437 215.147 126.802 209.95 129.281C204.832 131.76 198.675 133 191.478 133ZM191.478 114.405C194.677 114.405 196.916 113.431 198.195 111.483C199.474 109.476 200.114 107.262 200.114 104.842V28.1585C200.114 25.7381 199.434 23.5539 198.075 21.6059C196.716 19.5988 194.517 18.5952 191.478 18.5952C188.519 18.5952 186.32 19.5988 184.881 21.6059C183.522 23.5539 182.842 25.7381 182.842 28.1585V104.842C182.842 107.262 183.522 109.476 184.881 111.483C186.24 113.431 188.439 114.405 191.478 114.405Z" fill="#D05A00"/>
<path d="M273.377 133C266.26 133 260.463 131.76 255.985 129.281C251.507 126.802 248.188 123.437 246.029 119.186C243.95 114.936 242.911 110.154 242.911 104.842V28.1585C242.911 22.9046 244.31 18.1525 247.109 13.9021C249.908 9.6518 253.906 6.28695 259.104 3.80759C264.301 1.2692 270.418 0 277.455 0C282.813 0 287.611 0.737904 291.849 2.21371C296.167 3.63049 299.805 5.6376 302.764 8.23502C305.803 10.8324 308.082 13.8431 309.601 17.267C311.2 20.6318 312 24.2623 312 28.1585V48.1704H286.092V28.1585C286.092 25.561 285.452 23.3178 284.172 21.4288C282.893 19.5397 280.654 18.5952 277.455 18.5952C274.337 18.5952 272.098 19.5988 270.738 21.6059C269.459 23.5539 268.819 25.7381 268.819 28.1585V106.435C268.819 108.974 269.499 111.217 270.858 113.165C272.218 115.054 274.417 115.999 277.455 115.999C280.654 115.999 282.893 115.054 284.172 113.165C285.452 111.217 286.092 108.974 286.092 106.435V84.6525H275.776V66.7656H312V131.583H296.647L293.528 124.499C291.289 127.156 288.41 129.251 284.892 130.786C281.454 132.262 277.615 133 273.377 133Z" fill="#D05A00"/>
<path d="M23.3896 120.515V79.8376H31.486V114.98H42.2062V120.515H23.3896Z" fill="black"/>
<path d="M55.9193 120.957C53.6703 120.957 51.7336 120.57 50.1094 119.795C48.5101 119.02 47.2731 117.969 46.3985 116.641C45.5489 115.312 45.1241 113.818 45.1241 112.158V88.1944C45.1241 86.5157 45.5489 85.0214 46.3985 83.7116C47.2731 82.3834 48.5101 81.3319 50.1094 80.5571C51.7336 79.7823 53.6703 79.3949 55.9193 79.3949C58.1683 79.3949 60.0924 79.7823 61.6917 80.5571C63.316 81.3319 64.5529 82.3834 65.4026 83.7116C66.2772 85.0399 66.7145 86.5341 66.7145 88.1944V112.158C66.7145 113.818 66.2772 115.312 65.4026 116.641C64.5529 117.969 63.316 119.02 61.6917 119.795C60.0924 120.57 58.1683 120.957 55.9193 120.957ZM55.9193 115.146C56.9188 115.146 57.6185 114.842 58.0183 114.233C58.4182 113.606 58.6181 112.914 58.6181 112.158V88.1944C58.6181 87.4381 58.4057 86.7555 57.9809 86.1467C57.556 85.5195 56.8689 85.2059 55.9193 85.2059C54.9947 85.2059 54.3075 85.5195 53.8577 86.1467C53.4329 86.7555 53.2205 87.4381 53.2205 88.1944V112.158C53.2205 112.914 53.4329 113.606 53.8577 114.233C54.2825 114.842 54.9697 115.146 55.9193 115.146Z" fill="black"/>
<path d="M72.3668 120.515V79.8376H80.4632C85.3111 79.8376 88.8845 80.8338 91.1835 82.8261C93.4824 84.8 94.6319 87.7148 94.6319 91.5703C94.6319 93.8578 94.0822 95.8409 92.9827 97.5197C91.9081 99.18 90.5962 100.398 89.0469 101.172L94.557 120.515H86.4606L81.8876 103.358H80.4632V120.515H72.3668ZM80.4632 97.8241C81.9626 97.8241 83.1495 97.5842 84.0242 97.1046C84.8988 96.6065 85.5235 95.9055 85.8983 95.0016C86.2732 94.0976 86.4606 93.0277 86.4606 91.7917C86.4606 89.8547 86.0233 88.3697 85.1487 87.3366C84.299 86.2851 82.7372 85.7593 80.4632 85.7593V97.8241Z" fill="black"/>
<path d="M99.1616 120.515V79.8376H117.678V85.9807H107.258V96.9386H114.755V102.916H107.258V114.372H117.678V120.515H99.1616Z" fill="black"/>
<path d="M123.687 120.515V79.8376H133.957L138.38 100.923L138.755 103.082H138.905L139.28 100.923L143.703 79.8376H153.973V120.515H146.477V93.2306H146.027L145.727 94.9462L140.929 120.515H136.731L131.933 94.9462L131.633 93.2306H131.183V120.515H123.687Z" fill="black"/>
<path d="M171.566 120.515V79.8376H179.662V120.515H171.566Z" fill="black"/>
<path d="M185.695 120.515V79.8376H193.792C196.865 79.8376 199.427 80.3357 201.476 81.3319C203.55 82.3281 205.099 83.7393 206.124 85.5656C207.148 87.3919 207.661 89.5411 207.661 92.0131C207.661 94.485 207.123 96.6158 206.049 98.4052C204.974 100.195 203.4 101.597 201.326 102.611C199.277 103.607 196.765 104.152 193.792 104.244V120.515H185.695ZM193.792 98.1561C195.216 98.1561 196.341 97.9532 197.165 97.5474C197.99 97.1231 198.577 96.4589 198.927 95.555C199.302 94.6511 199.489 93.4889 199.489 92.0684C199.489 90.6295 199.302 89.4581 198.927 88.5541C198.577 87.6502 197.977 86.9861 197.128 86.5618C196.303 86.1375 195.191 85.9253 193.792 85.9253V98.1561Z" fill="black"/>
<path d="M221.796 120.957C219.572 120.957 217.723 120.69 216.249 120.155C214.775 119.601 213.613 118.808 212.763 117.775C211.913 116.742 211.301 115.497 210.926 114.04C210.576 112.582 210.402 110.94 210.402 109.114L218.348 108.561C218.348 109.446 218.385 110.304 218.46 111.134C218.56 111.946 218.723 112.684 218.948 113.348C219.198 113.993 219.547 114.51 219.997 114.897C220.472 115.285 221.072 115.478 221.796 115.478C222.996 115.478 223.846 115.073 224.345 114.261C224.845 113.431 225.095 112.435 225.095 111.272C225.095 110.11 224.683 108.902 223.858 107.647C223.033 106.393 222.046 105.203 220.897 104.078C218.948 102.159 217.236 100.379 215.762 98.7372C214.312 97.0954 213.175 95.4812 212.351 93.8947C211.551 92.3082 211.151 90.6479 211.151 88.9139C211.151 87.5487 211.389 86.2943 211.863 85.1505C212.338 83.9883 213.025 82.9829 213.925 82.1344C214.85 81.2673 215.962 80.594 217.261 80.1143C218.56 79.6347 220.047 79.3949 221.722 79.3949C223.796 79.3949 225.545 79.6532 226.969 80.1697C228.419 80.6862 229.581 81.4241 230.455 82.3834C231.355 83.3427 232.004 84.4864 232.404 85.8147C232.829 87.1244 233.041 88.5818 233.041 90.1867L225.095 90.7402C225.095 90.0576 225.045 89.3751 224.945 88.6925C224.87 87.9915 224.72 87.355 224.495 86.7832C224.27 86.2113 223.946 85.7501 223.521 85.3996C223.096 85.0491 222.546 84.8738 221.871 84.8738C220.822 84.8738 220.097 85.2059 219.697 85.87C219.298 86.5157 219.098 87.4381 219.098 88.6371C219.098 90.1867 219.66 91.681 220.784 93.1199C221.909 94.5588 223.421 96.2376 225.32 98.1561C227.594 100.425 229.443 102.51 230.867 104.41C232.317 106.31 233.041 108.413 233.041 110.719C233.041 112.176 232.829 113.532 232.404 114.787C231.979 116.023 231.305 117.102 230.38 118.024C229.481 118.947 228.319 119.666 226.894 120.183C225.495 120.699 223.796 120.957 221.796 120.957Z" fill="black"/>
<path d="M248.177 120.957C245.903 120.957 243.953 120.57 242.329 119.795C240.73 119.02 239.505 117.969 238.656 116.641C237.806 115.312 237.381 113.818 237.381 112.158V79.8376H245.478V112.158C245.478 112.951 245.69 113.652 246.115 114.261C246.54 114.851 247.227 115.146 248.177 115.146C249.176 115.146 249.876 114.851 250.276 114.261C250.675 113.652 250.875 112.951 250.875 112.158V79.8376H258.972V112.158C258.972 113.818 258.534 115.312 257.66 116.641C256.81 117.969 255.573 119.02 253.949 119.795C252.35 120.57 250.426 120.957 248.177 120.957Z" fill="black"/>
<path d="M264.981 120.515V79.8376H275.252L279.675 100.923L280.05 103.082H280.2L280.574 100.923L284.997 79.8376H295.268V120.515H287.771V93.2306H287.321L287.022 94.9462L282.224 120.515H278.026L273.228 94.9462L272.928 93.2306H272.478V120.515H264.981Z" fill="black"/>
</svg>
